<svg width="20" height="20" viewBox="0 0 24 24" fill="none" xmlns="http://www.w3.org/2000/svg" aria-hidden="true"><path d="M10.757 8.954a.5.5 0 0 0-.757.43v5.233a.5.5 0 0 0 .757.429l4.362-2.617a.5.5 0 0 0 0-.858l-4.362-2.617Z" fill="currentColor"></path><path d="M4.44 16.92a8.6 8.6 0 0 1-.44-.84M5 17.64c-.18-.23-.36-.47-.52-.72M7.69 19.92a8.318 8.318 0 0 1-.9-.55M9.61 20.69a8.657 8.657 0 0 1-1.92-.77M16.41 19.86A8.8 8.8 0 0 1 12.15 21M3.14 13.54c0-.11 0-.22-.05-.33L3 12.43M5 6.4A8.91 8.91 0 0 1 12 3a9 9 0 0 1 9 9 9.16 9.16 0 0 1-2.52 6.26" stroke="currentColor" stroke-width="1.5" stroke-linecap="round" stroke-linejoin="round"></path><path d="m7.16 7.06-3.08-.11.11-2.85" stroke="currentColor" stroke-width="1.5" stroke-linecap="round" stroke-linejoin="round"></path></svg>