<svg xmlns="http://www.w3.org/2000/svg" width="20" height="20" fill="none" viewBox="0 0 24 24" aria-hidden="true"><path fill="currentColor" fill-rule="evenodd" d="M18.536 20.524h-3.312V16.22a.74.74 0 00-.74-.738H9.517a.74.74 0 00-.74.738v4.304H5.465L4.619 9.969 12 3.707l7.382 6.262-.846 10.555zm4.203-9.644L20.63 9.09a.308.308 0 01-.019-.016l-8.13-6.898a.743.743 0 00-.96 0L1.296 10.85l-.034.029a.736.736 0 00-.085 1.04.74.74 0 001.043.084l1.01-.855.815 10.172c.03.384.351.679.737.679h4.736a.74.74 0 00.74-.738v-4.304h3.486v4.304a.74.74 0 00.74.738h4.736a.74.74 0 00.738-.679l.815-10.172 1.008.855a.74.74 0 001.043-.084.736.736 0 00-.084-1.04z" clip-rule="evenodd"></path></svg>